<svg width="40" height="40" viewBox="0 0 40 40" fill="none" xmlns="http://www.w3.org/2000/svg">
  <!-- Background circle -->
  <circle cx="20" cy="20" r="18" fill="currentColor" opacity="0.1"/>
  
  <!-- Family/People icon -->
  <g fill="currentColor">
    <!-- Adult 1 -->
    <circle cx="14" cy="14" r="4"/>
    <path d="M14 20C14 20 10 22 10 24V26H18V24C18 22 14 20 14 20Z"/>
    
    <!-- Adult 2 -->
    <circle cx="26" cy="14" r="4"/>
    <path d="M26 20C26 20 30 22 30 24V26H22V24C22 22 26 20 26 20Z"/>
    
    <!-- Child -->
    <circle cx="20" cy="18" r="3"/>
    <path d="M20 22C20 22 17 23.5 17 25V27H23V25C23 23.5 20 22 20 22Z"/>
  </g>
  
  <!-- Calendar/Organizer accent -->
  <rect x="12" y="28" width="16" height="8" rx="1" fill="currentColor" opacity="0.3"/>
  <line x1="16" y1="28" x2="16" y2="36" stroke="currentColor" stroke-width="1"/>
  <line x1="20" y1="28" x2="20" y2="36" stroke="currentColor" stroke-width="1"/>
  <line x1="24" y1="28" x2="24" y2="36" stroke="currentColor" stroke-width="1"/>
</svg>












